<svg width="62" height="62" viewBox="0 0 62 62" fill="none" xmlns="http://www.w3.org/2000/svg">
<path d="M26.0757 33.6533L25.5317 34.1973L10.3638 49.3682C9.72658 50.0054 9.72459 51.0388 10.3628 51.6797H10.3638L11.772 53.0889H11.7729C12.4133 53.7273 13.4451 53.7274 14.0854 53.0889L29.7993 37.375L30.8872 38.4629L30.3433 39.0068L15.1724 54.1768V54.1777C13.9315 55.4155 11.9269 55.4155 10.686 54.1777L9.2749 52.7666C8.03759 51.5261 8.03684 49.5193 9.27588 48.2803L24.4438 33.1094L24.9878 32.5654L26.0757 33.6533ZM30.7261 19.3867C30.8701 19.5309 30.9506 19.7269 30.9507 19.9307C30.9506 20.1346 30.8703 20.3304 30.7261 20.4746L28.1226 23.0742L52.7847 46.2666C53.9923 47.4018 54.7691 48.8165 55.019 50.1992C55.2686 51.5799 54.9972 53.0002 53.9995 53.998C53.0017 54.9959 51.5813 55.267 50.2007 55.0176C48.8179 54.7676 47.4033 53.9909 46.2681 52.7832L23.0747 28.1201L20.4722 30.7256C20.328 30.8695 20.1319 30.9501 19.9282 30.9502C19.7244 30.9501 19.5284 30.8696 19.3843 30.7256L6.11182 17.4531L7.19971 16.3652L19.9272 29.0928L22.02 26.998L22.0063 26.9834L22.5005 26.5176L22.5454 26.4736L23.0894 25.9297L23.1069 25.9473L23.1265 25.9297L23.6538 26.4902L23.7153 26.5557L24.1772 27.0176L24.1626 27.0312L47.3892 51.7295L47.5659 51.9111C48.4614 52.7944 49.5113 53.3288 50.4741 53.5029C51.5032 53.6888 52.363 53.4587 52.9116 52.9102C53.4601 52.3615 53.6904 51.5017 53.5044 50.4727C53.3303 49.5098 52.7959 48.4599 51.9126 47.5645L51.731 47.3877L27.0347 24.1621L27.0181 24.1797L26.4741 23.6357L25.9312 23.125L25.9458 23.1074L25.9302 23.0918L26.4741 22.5479H26.4731L26.9849 22.0049L27.0015 22.0205L29.0933 19.9297L16.3657 7.20215L17.4536 6.11426L30.7261 19.3867ZM51.522 6.43652C51.7519 6.46001 51.9593 6.58633 52.0864 6.7793L51.4438 7.20215C52.0588 6.79754 52.0859 6.78039 52.0874 6.78027L52.0884 6.78223C52.0889 6.78305 52.0897 6.78418 52.0903 6.78516C52.0919 6.78761 52.0941 6.79154 52.0962 6.79492C52.1005 6.80166 52.1065 6.81008 52.1128 6.82031C52.1258 6.84143 52.1431 6.87051 52.1636 6.90625C52.2047 6.97811 52.2598 7.08005 52.3228 7.20996C52.4488 7.46995 52.6083 7.84526 52.7554 8.33008C53.0502 9.30176 53.2953 10.7096 53.1392 12.5039C52.8258 16.1038 50.9054 21.1573 44.7456 27.3184C43.0824 28.9816 41.548 30.3951 40.1685 31.584L39.5854 32.0859L38.5806 30.9209L39.1636 30.4189C40.5138 29.2552 42.0208 27.8674 43.6577 26.2305C49.6316 20.2554 51.3326 15.5221 51.6069 12.3701C51.7444 10.7892 51.5259 9.57895 51.2827 8.77734C51.2563 8.69044 51.2292 8.60764 51.2026 8.53027L34.1958 25.5361L33.6519 26.0801L32.564 24.9922L33.1079 24.4482L50.8999 6.6582C51.0634 6.49489 51.2921 6.41313 51.522 6.43652ZM21.1821 23.6367L20.0942 24.7246L9.46826 14.0986L10.5562 13.0107L21.1821 23.6367ZM24.7222 20.0947L23.6343 21.1826L13.0083 10.5566L14.0962 9.46875L24.7222 20.0947Z" fill="#C33C1D"/>
</svg>
