<svg width="62" height="62" viewBox="0 0 62 62" fill="none" xmlns="http://www.w3.org/2000/svg">
<path d="M39.4902 52.9482H17.8701V51.4092H39.4902V52.9482ZM23.8359 10.4375C26.3809 8.98806 29.4884 8.90692 31.8906 10.3809H31.8916C32.9611 11.0359 33.8199 11.9559 34.4307 13.0332C34.883 12.5958 35.3471 12.2443 35.8906 11.9961C36.5887 11.6774 37.3522 11.5576 38.2803 11.5576C42.002 11.5577 45.0203 14.5761 45.0205 18.2979C45.0205 19.0119 44.965 19.5772 44.7725 20.1172C44.5813 20.653 44.2746 21.1058 43.8828 21.6201L43.7998 21.7285C43.9118 21.9629 44.0106 22.2061 44.0928 22.458L48.7842 36.8154H55.2959V38.3545H51.9277C51.8654 38.5686 51.7833 38.8517 51.6748 39.2158C51.3658 40.2532 50.85 41.9526 50.0215 44.6113C50.0164 44.6362 50.0106 44.6611 50.0029 44.6855C49.6635 45.7726 48.8466 46.7635 47.6846 46.7637H14.8242C13.6635 46.7636 12.845 45.7794 12.5049 44.6855V44.6846C11.6611 41.9845 11.1385 40.2637 10.8262 39.2168C10.7174 38.8523 10.6348 38.5689 10.5723 38.3545H7.20508V36.8154H13.5322C13.4996 36.5488 13.5091 36.2939 13.5244 36.085C13.5531 35.6936 13.5908 35.4766 13.5908 35.2148C13.591 32.1068 16.0013 29.5612 19.0537 29.3418L21.3301 22.4609C21.621 21.5683 22.0041 20.8272 22.5801 20.2363C23.0522 19.7521 23.6204 19.4044 24.293 19.1436C24.2783 19.1254 24.2626 19.1081 24.248 19.0898L24.04 18.8135C22.4018 16.5219 22.26 13.4169 23.5234 10.7734L23.5811 10.6729C23.6466 10.5766 23.7339 10.4957 23.8359 10.4375ZM12.2998 38.7764C12.4548 39.2959 12.6632 39.9844 12.9375 40.8799L13.9736 44.2275L13.9746 44.2285C14.2239 45.0304 14.6441 45.2245 14.8242 45.2246H47.6846C47.8602 45.2244 48.2673 45.0344 48.5186 44.2715C48.5222 44.257 48.5258 44.2419 48.5303 44.2275C49.3707 41.5313 49.8906 39.8166 50.2002 38.7773C50.2465 38.6219 50.287 38.4807 50.3242 38.3545H12.1758C12.213 38.4805 12.2535 38.6211 12.2998 38.7764ZM19.4814 30.8633C17.0792 30.8634 15.1301 32.8126 15.1299 35.2148C15.1298 35.542 15.0756 35.9655 15.0586 36.1973C15.037 36.4927 15.0509 36.6609 15.0869 36.7646L15.1045 36.8154H23.2754L23.3555 36.6621C23.5677 36.2571 23.6653 36.0976 23.7373 35.9033C23.7924 35.7545 23.833 35.5756 23.833 35.2148C23.8328 32.8127 21.8836 30.8635 19.4814 30.8633ZM41.5273 26.375C41.5272 27.8091 40.4715 29.1165 38.9863 29.209C38.4135 29.2449 37.9193 29.1089 37.5127 28.8408C37.1582 30.0732 36.0077 30.9937 34.6289 30.8467V30.8457C33.1539 30.6895 32.1906 29.3349 32.1904 27.9512V24.8975H22.1445L20.6416 29.4395C23.3382 29.9787 25.3709 32.3601 25.3711 35.2148C25.3711 35.7073 25.314 36.0762 25.1797 36.4385C25.1329 36.5646 25.074 36.6902 25.0117 36.8154H47.165L46.083 33.5029H35.3506V31.9639H45.5801L43.3096 25.0156C43.2276 25.0502 43.1421 25.0786 43.0518 25.0967C42.7673 25.1534 42.5151 25.1075 42.3418 25.0645C41.9298 24.9622 41.8504 24.8936 41.5947 24.8936H41.5273V26.375ZM35.0596 19.8447C35.003 20.0187 34.9431 20.1928 34.875 20.3652C34.8399 20.4541 34.7886 20.5364 34.7236 20.6064L34.4453 20.9053C34.3799 20.9756 34.3014 21.0335 34.2148 21.0752C31.2492 22.5 27.8714 22.1175 25.54 20.3496L25.2256 20.4473C24.5107 20.6684 24.0353 20.947 23.6816 21.3096C23.3244 21.676 23.039 22.1818 22.792 22.9404L22.791 22.9434L22.6533 23.3594H32.959C33.3837 23.3594 33.7283 23.7033 33.7285 24.1279V27.9512C33.7287 28.7021 34.2435 29.2594 34.792 29.3174C35.4516 29.3877 36.0897 28.8326 36.0898 28.0449V24.4404C36.0898 24.0157 36.4338 23.6711 36.8584 23.6709C37.2832 23.6709 37.6279 24.0156 37.6279 24.4404C37.6279 25.0371 37.6268 25.9559 37.8467 26.7041C37.9552 27.0731 38.0977 27.327 38.2549 27.4766C38.3871 27.6022 38.569 27.694 38.8906 27.6738C39.4638 27.6382 39.9882 27.1018 39.9883 26.375V24.124C39.9883 23.6993 40.3331 23.3547 40.7578 23.3545H41.5947C41.8738 23.3545 42.1124 23.4029 42.3027 23.4531C42.3949 23.4775 42.4812 23.5042 42.5479 23.5244C42.62 23.5463 42.6691 23.5606 42.7119 23.5713C42.7188 23.573 42.7257 23.5739 42.7314 23.5752L42.8115 23.4922L42.6299 22.9355C42.0287 21.0919 40.3084 19.8448 38.3643 19.8447H35.0596ZM31.0879 11.6924C29.5096 10.7233 27.4779 10.5904 25.6084 11.2998L26.1689 11.7012L26.1699 11.7021C26.1706 11.7026 26.1718 11.7033 26.1729 11.7041C26.1753 11.7058 26.1792 11.7088 26.1836 11.7119C26.1926 11.7184 26.2059 11.7281 26.2227 11.7402C26.2569 11.765 26.3072 11.8009 26.3711 11.8477C26.4992 11.9413 26.6836 12.0775 26.9102 12.248C27.3634 12.5893 27.9877 13.0706 28.6709 13.6289C30.0206 14.732 31.662 16.1865 32.6465 17.4824L33.1123 18.0947L31.8867 19.0254L31.4219 18.4131C30.5571 17.2747 29.0413 15.9188 27.6973 14.8203C27.0337 14.278 26.4266 13.8097 25.9854 13.4775C25.7649 13.3116 25.586 13.1798 25.4629 13.0898C25.4016 13.045 25.3542 13.0104 25.3223 12.9873C25.3063 12.9758 25.2941 12.9666 25.2861 12.9609C25.2823 12.9582 25.2792 12.9564 25.2773 12.9551C25.2764 12.9544 25.2758 12.9535 25.2754 12.9531L24.6484 12.5059L25.4678 11.3574C25.2468 11.4467 25.0275 11.5461 24.8125 11.6592C23.8741 13.8033 24.0587 16.1947 25.29 17.918C26.9464 20.231 30.3702 21.1433 33.4229 19.7451L33.4912 19.6709C34.6665 16.5267 33.5155 13.18 31.0889 11.6934L31.0879 11.6924ZM38.2803 13.0967C37.4832 13.0967 36.9589 13.1994 36.5293 13.3955C36.0966 13.5931 35.693 13.9154 35.1807 14.4658L35.0938 14.5576C35.4689 15.7342 35.5873 17.0166 35.4121 18.3057H38.3643C40.1408 18.3057 41.7794 19.0829 42.8994 20.3613C43.1166 20.0537 43.2419 19.8286 43.3232 19.6006C43.4293 19.3032 43.4814 18.9415 43.4814 18.2979C43.4813 15.4258 41.1523 13.0968 38.2803 13.0967Z" fill="#C33C1D"/>
</svg>
