<svg width="24" height="24" viewBox="0 0 24 24" fill="none" xmlns="http://www.w3.org/2000/svg">
<mask id="mask0_40000022_2078" style="mask-type:alpha" maskUnits="userSpaceOnUse" x="0" y="0" width="24" height="24">
<rect width="24" height="24" fill="#D9D9D9"/>
</mask>
<g mask="url(#mask0_40000022_2078)">
<path d="M8 15.5575C7.75517 15.5575 7.5465 15.4713 7.374 15.299C7.20167 15.1265 7.1155 14.9178 7.1155 14.673C7.1155 14.4282 7.20167 14.2195 7.374 14.047C7.5465 13.8745 7.75517 13.7882 8 13.7882C8.24483 13.7882 8.4535 13.8745 8.626 14.047C8.79833 14.2195 8.8845 14.4282 8.8845 14.673C8.8845 14.9178 8.79833 15.1265 8.626 15.299C8.4535 15.4713 8.24483 15.5575 8 15.5575ZM12 15.5575C11.7552 15.5575 11.5465 15.4713 11.374 15.299C11.2017 15.1265 11.1155 14.9178 11.1155 14.673C11.1155 14.4282 11.2017 14.2195 11.374 14.047C11.5465 13.8745 11.7552 13.7882 12 13.7882C12.2448 13.7882 12.4535 13.8745 12.626 14.047C12.7983 14.2195 12.8845 14.4282 12.8845 14.673C12.8845 14.9178 12.7983 15.1265 12.626 15.299C12.4535 15.4713 12.2448 15.5575 12 15.5575ZM16 15.5575C15.7552 15.5575 15.5465 15.4713 15.374 15.299C15.2017 15.1265 15.1155 14.9178 15.1155 14.673C15.1155 14.4282 15.2017 14.2195 15.374 14.047C15.5465 13.8745 15.7552 13.7882 16 13.7882C16.2448 13.7882 16.4535 13.8745 16.626 14.047C16.7983 14.2195 16.8845 14.4282 16.8845 14.673C16.8845 14.9178 16.7983 15.1265 16.626 15.299C16.4535 15.4713 16.2448 15.5575 16 15.5575ZM5.30775 20.1152C4.80258 20.1152 4.375 19.9403 4.025 19.5903C3.675 19.2402 3.5 18.8127 3.5 18.3075V7.923C3.5 7.41783 3.675 6.99025 4.025 6.64025C4.375 6.29025 4.80258 6.11525 5.30775 6.11525H6.69225V4H8.23075V6.11525H15.8077V4H17.3077V6.11525H18.6923C19.1974 6.11525 19.625 6.29025 19.975 6.64025C20.325 6.99025 20.5 7.41783 20.5 7.923V18.3075C20.5 18.8127 20.325 19.2402 19.975 19.5903C19.625 19.9403 19.1974 20.1152 18.6923 20.1152H5.30775ZM5.30775 18.6152H18.6923C18.7692 18.6152 18.8398 18.5832 18.9038 18.519C18.9679 18.455 19 18.3845 19 18.3075V11.923H5V18.3075C5 18.3845 5.03208 18.455 5.09625 18.519C5.16025 18.5832 5.23075 18.6152 5.30775 18.6152ZM5 10.423H19V7.923C19 7.846 18.9679 7.7755 18.9038 7.7115C18.8398 7.64733 18.7692 7.61525 18.6923 7.61525H5.30775C5.23075 7.61525 5.16025 7.64733 5.09625 7.7115C5.03208 7.7755 5 7.846 5 7.923V10.423Z" fill="#1C1B1F"/>
</g>
</svg>
