<svg width="118" height="50" viewBox="0 0 118 50" fill="none" xmlns="http://www.w3.org/2000/svg">
<path d="M76.5182 3.25459C76.2494 2.00941 75.2717 1.10231 73.6137 0.557102C70.6783 -0.409519 66.6391 -0.114292 61.9338 1.41183C58.1825 2.62843 54.0267 4.6331 50.5299 6.91394C47.7396 8.73291 42.3516 13.6874 41.5405 17.0849C41.2574 18.2729 41.4191 19.1943 42.0233 19.8205C43.3436 21.1918 46.4027 20.7871 48.9171 20.2824C48.9551 20.2752 52.7041 19.4538 53.0229 18.8372C53.1965 18.5039 53.2227 18.1182 53.099 17.7777C52.9848 17.4658 52.7517 17.2254 52.4425 17.0992L52.3402 17.0563L52.2355 17.0896C50.3491 17.7015 44.6067 19.5633 43.7408 18.2515C43.4744 17.8491 43.4649 16.673 46.3884 13.3041C51.1032 7.87104 61.0798 2.17131 69.2486 2.17131C69.4294 2.17131 69.6102 2.17369 69.7886 2.18084C72.0294 2.25226 73.3639 2.78081 73.7517 3.74981C74.2869 5.08784 73.0523 7.42106 70.3643 10.1566C65.1975 15.4159 60.7682 18.2206 59.0579 19.2062C59.5027 17.2825 60.2972 14.3041 60.9371 11.9089C61.7007 9.04955 61.9885 7.94961 61.9909 7.7401C61.9957 7.28059 61.6175 6.92109 61.0513 6.8449C60.4138 6.75919 59.6668 7.06155 59.4742 7.80438C59.1673 8.98527 56.9883 17.4896 56.2128 20.5347C55.9393 20.6657 55.5063 20.8276 55.0425 20.999C53.1823 21.6894 51.862 22.2394 51.8097 23.0322C51.7764 23.5298 51.9762 23.7869 52.1522 23.9131C52.7921 24.3822 54.0719 23.8822 55.1067 23.4798C55.2423 23.4274 55.3945 23.3679 55.5278 23.3179L55.3969 23.7965C54.9711 25.3559 54.0886 28.5986 53.7175 30.3914L53.6818 30.5604L53.8103 30.6771C53.8578 30.72 54.2979 31.1009 54.8688 31.1009C54.9997 31.1009 55.1281 31.0795 55.2494 31.039C55.9179 30.8199 56.396 30.0319 56.6672 28.6962L58.3442 22.0966C59.3814 21.568 64.6671 18.7729 69.5127 14.3088C73.0856 11.0185 77.2009 6.42825 76.5158 3.25936" fill="white"/>
<path d="M66.6699 39.6338C68.4941 39.6338 69.7575 40.1269 70.2168 40.3389L70.2646 40.3604V42.084L70.1484 42.0342C69.5133 41.7652 68.2263 41.3145 66.7373 41.3145C64.0993 41.3145 62.3273 42.7195 62.3271 44.8145C62.3271 46.8441 63.9743 48.2262 66.4541 48.3105L66.6992 48.3145C67.917 48.3144 69.0727 48.0831 70.2334 47.6094L70.3477 47.5625V49.2881L70.2979 49.3096C69.8078 49.5167 68.4688 49.9999 66.6445 50C62.8933 50 60.3713 47.9171 60.3711 44.8174C60.3711 41.7177 62.9022 39.634 66.6699 39.6338ZM102.954 39.6289C103.998 39.6289 105.114 39.8193 105.935 40.1406L105.987 40.1621V41.8926L105.87 41.8408C105.045 41.4766 103.979 41.2598 103.021 41.2598C101.589 41.2598 100.768 41.6788 100.768 42.4072C100.768 42.9787 101.121 43.429 102.857 43.9912L103.228 44.1074C105.33 44.7335 106.634 45.3737 106.634 47.1543C106.634 48.9352 105.085 50 102.492 50C101.298 49.9999 99.9662 49.778 99.0195 49.4209L98.9648 49.3994V47.6162L99.0791 47.6641C100.123 48.095 101.37 48.3545 102.407 48.3545C103.86 48.3544 104.728 47.9405 104.729 47.248C104.729 46.5005 104.148 46.1021 102.248 45.5498C100.171 44.9522 98.8818 44.2356 98.8818 42.4619C98.8819 40.6883 100.404 39.6289 102.954 39.6289ZM114.32 39.6289C115.364 39.629 116.48 39.8192 117.301 40.1406L117.353 40.1621V41.8926L117.236 41.8408C116.411 41.4766 115.345 41.2598 114.387 41.2598C112.955 41.2598 112.134 41.6787 112.134 42.4072C112.134 42.9786 112.487 43.4291 114.223 43.9912L114.594 44.1074C116.696 44.7335 118 45.3738 118 47.1543C118 48.9352 116.451 50 113.858 50C112.664 50 111.332 49.778 110.386 49.4209L110.331 49.3994V47.6162L110.445 47.6641C111.492 48.0949 112.735 48.3544 113.772 48.3545C115.226 48.3545 116.094 47.9406 116.095 47.248C116.095 46.5005 115.514 46.1022 113.613 45.5498C111.537 44.9522 110.247 44.2356 110.247 42.4619C110.247 40.6883 111.77 39.6289 114.32 39.6289ZM33.0244 39.6836L38.2822 44.8213H38.2871L43.5674 39.6602H43.7939V49.8242H41.9307V44.7764C41.9307 44.2955 41.9404 43.8406 41.957 43.5049C41.5194 43.981 40.9109 44.5906 40.3662 45.1357L38.2842 47.0928L35.4678 44.3721C35.1514 44.0769 34.8635 43.7767 34.6113 43.5029C34.628 43.8386 34.6377 44.2932 34.6377 44.7764V49.8242H32.7754V39.6602H33.001L33.0244 39.6836ZM3.7041 39.8076C6.35614 39.8077 7.94029 41.0002 7.94043 42.9951C7.94043 44.9902 6.35626 46.1835 3.7041 46.1836H1.92871V49.8213H0V39.8096L3.7041 39.8076ZM56.6846 41.3721H51.1514V43.9932H55.8516V45.5146H51.1514V48.2598H56.9316V49.8213H49.2217V39.8105H56.6846V41.3721ZM76.7402 48.2598H81.6709V49.8213H74.8105V39.8105H76.7402V48.2598ZM16.3428 39.8076C18.9603 39.8078 20.5579 40.9269 20.6553 42.8105L20.6602 42.9932C20.6601 44.3477 19.7678 45.402 18.2646 45.833L20.9385 49.8193H18.8379L16.4473 46.126H14.2803V49.8193H12.3652V39.8076H16.3428ZM27.3398 49.8193H25.4102V39.8076H27.3398V49.8193ZM90.1826 39.7002L95.7158 49.8193H93.667L92.5469 47.8242H87.5088L86.417 49.8193H84.3682L89.9258 39.6582H90.1582L90.1826 39.7002ZM90.0439 42.7383C89.5182 43.8358 88.848 45.1598 88.1748 46.4121H91.8994C91.3095 45.2908 90.6267 43.9382 90.0439 42.7383ZM1.93164 44.6357H3.78906C5.17577 44.6357 5.97251 44.0312 5.97266 42.998C5.97266 41.9648 5.14522 41.3721 3.70605 41.3721H1.93164V44.6357ZM14.2822 44.6357H16.4258C17.8837 44.6357 18.7186 44.0311 18.7188 42.998C18.7188 41.9649 17.853 41.3722 16.3428 41.3721H14.2822V44.6357Z" fill="white"/>
</svg>
