<svg width="24" height="24" viewBox="0 0 24 24" fill="none" xmlns="http://www.w3.org/2000/svg">
<mask id="mask0_40000022_2073" style="mask-type:alpha" maskUnits="userSpaceOnUse" x="0" y="0" width="24" height="24">
<rect width="24" height="24" fill="#D9D9D9"/>
</mask>
<g mask="url(#mask0_40000022_2073)">
<path d="M14.9079 19.5C12.8131 19.5 11.0387 18.773 9.58469 17.319C8.13086 15.8652 7.40394 14.0907 7.40394 11.9957C7.40394 9.91658 8.13086 8.1475 9.58469 6.6885C11.0387 5.2295 12.8131 4.5 14.9079 4.5C16.9873 4.5 18.7564 5.2295 20.2152 6.6885C21.6742 8.1475 22.4037 9.91658 22.4037 11.9957C22.4037 14.0907 21.6742 15.8652 20.2152 17.319C18.7564 18.773 16.9873 19.5 14.9079 19.5ZM14.9037 18C16.5704 18 17.987 17.4167 19.1537 16.25C20.3204 15.0833 20.9037 13.6667 20.9037 12C20.9037 10.3333 20.3204 8.91667 19.1537 7.75C17.987 6.58333 16.5704 6 14.9037 6C13.237 6 11.8204 6.58333 10.6537 7.75C9.48702 8.91667 8.90369 10.3333 8.90369 12C8.90369 13.6667 9.48702 15.0833 10.6537 16.25C11.8204 17.4167 13.237 18 14.9037 18ZM17.2749 15.4653L18.3442 14.3963L15.6537 11.7058V8.15375H14.1537V12.3192L17.2749 15.4653ZM2.59619 8.75V7.25H6.40394V8.75H2.59619ZM1.59619 12.75V11.25H6.40394V12.75H1.59619ZM2.59619 16.75V15.25H6.40394V16.75H2.59619Z" fill="#1C1B1F"/>
</g>
</svg>
