<svg width="62" height="62" viewBox="0 0 62 62" fill="none" xmlns="http://www.w3.org/2000/svg">
<path d="M42.3379 14.4856C42.7627 14.4856 43.1074 14.8303 43.1074 15.2551V26.8918C43.1071 33.4798 37.9627 38.8723 31.4746 39.2717V53.2727H36.3184V54.8118H25.083V53.2727H29.9355V39.2717C23.4445 38.8754 18.2963 33.4819 18.2959 26.8918V15.2551C18.2959 14.8303 18.6406 14.4856 19.0654 14.4856H42.3379ZM19.835 26.8918C19.8353 32.8774 24.6841 37.7381 30.665 37.7581H30.7393C36.72 37.7378 41.569 32.8772 41.5693 26.8918V16.0247H19.835V26.8918ZM39.2324 26.8909C39.2324 31.5936 35.4078 35.4182 30.7051 35.4182H29.9355V33.8801H30.7051C34.5582 33.8801 37.6943 30.744 37.6943 26.8909V26.1213H39.2324V26.8909ZM43.1074 6.76294C47.2019 7.12992 50.4621 10.3895 50.8281 14.4856H50.8691V16.0247H50.8281C50.5709 18.896 48.8928 21.3565 46.5029 22.6975L45.832 23.0735L45.0791 21.7317L45.75 21.3557C47.6735 20.2764 49.032 18.317 49.2832 16.0247H45.4521V14.4856H49.2822C48.9272 11.2401 46.3517 8.66481 43.1074 8.30884V12.1438H41.5684V8.30786C39.3085 8.55482 37.372 9.87811 36.2842 11.7581L35.8984 12.4241L34.5674 11.6536L34.9521 10.9875C36.3045 8.65046 38.737 7.01387 41.5684 6.76099V6.72681H43.1074V6.76294ZM20.125 6.73267C20.3326 6.75728 20.5234 6.86513 20.6504 7.03442L23.5586 10.9133L24.0205 11.5286L22.79 12.4514L22.3281 11.8362L19.6494 8.26587H14.416V6.72681H20.0342L20.125 6.73267Z" fill="#C33C1D"/>
</svg>
