<svg width="20" height="20" viewBox="0 0 20 20" fill="none" xmlns="http://www.w3.org/2000/svg">
<path fill-rule="evenodd" clip-rule="evenodd" d="M18.9 0H1.1C0.492487 0 0 0.492487 0 1.1V18.9C0 19.5075 0.492487 20 1.1 20H10.68V12.255H8.08V9.237H10.68V7.011C10.5731 5.9431 10.9432 4.88249 11.6915 4.11306C12.4397 3.34363 13.4895 2.94395 14.56 3.021C15.3383 3.01768 16.1161 3.05741 16.89 3.14V5.84H15.3C14.8864 5.74772 14.4542 5.87095 14.1514 6.16747C13.8486 6.46399 13.7164 6.89354 13.8 7.309V9.237H16.79L16.4 12.255H13.8V20H18.9C19.5075 20 20 19.5075 20 18.9V1.1C20 0.492487 19.5075 0 18.9 0V0Z" fill="white"/>
</svg>
