<svg width="44" height="44" viewBox="0 0 44 44" fill="none" xmlns="http://www.w3.org/2000/svg">
<rect opacity="0.01" width="44" height="44" fill="white"/>
<path fill-rule="evenodd" clip-rule="evenodd" d="M22.0054 13H21.9946C21.9946 13 16.1124 13 12.2016 13.2734C11.1482 13.2823 10.1397 13.6927 9.38977 14.4175C8.79314 15.2044 8.41122 16.1275 8.28011 17.0993C8.10575 18.5505 8.01225 20.0098 8 21.4709V23.5206C8.01225 24.9817 8.10575 26.4411 8.28011 27.8922C8.41122 28.8641 8.79314 29.7871 9.38977 30.5741C10.2484 31.3055 11.344 31.7146 12.4817 31.7288C14.7226 31.9398 22.0054 32 22.0054 32C22.0054 32 27.8876 31.9916 31.7984 31.7182C32.8518 31.7092 33.8603 31.2989 34.6102 30.5741C35.2069 29.7871 35.5888 28.8641 35.7199 27.8922C35.8942 26.4411 35.9878 24.9817 36 23.5206V21.4709C35.9878 20.0098 35.8942 18.5505 35.7199 17.0993C35.5888 16.1275 35.2069 15.2044 34.6102 14.4175C33.8603 13.6927 32.8518 13.2823 31.7984 13.2734C27.8876 13 22.0054 13 22.0054 13ZM19.5922 26.0041L27.1551 22.2224L19.5922 18.4133V26.0041Z" fill="white"/>
</svg>
